<svg viewBox="0 0 181 40" fill="none" xmlns="http://www.w3.org/2000/svg" style="--hoverColor:#ff3d00">
<path d="M44.8134 6.99929C43.5 5.83801 42.0165 4.86488 40.4048 4.12211C40.3685 4.10535 40.332 4.0887 40.2955 4.07218C38.0256 3.04436 35.5054 2.47213 32.8515 2.47213C22.5734 2.47213 14.1997 11.4098 14.8189 21.6455C14.9919 24.5059 17.4288 24.8705 19.1516 24.7413C24.5527 24.3363 31.7414 19.1006 35.9922 16.0048L36.0442 15.9669C39.0399 13.7852 57.3529 1.36202 59.8878 5.75251C60.5393 6.88101 57.7233 9.85268 52.7661 13.6113C52.6028 13.7351 52.5553 13.962 52.6578 14.1395C52.7771 14.3462 53.0504 14.4042 53.2448 14.2656C61.4525 8.41462 66.3691 3.62826 65.4092 1.96559C64.3802 0.183488 56.8679 2.45382 46.6597 7.28712C46.0469 7.57727 45.3214 7.44841 44.8134 6.99929Z" fill="url(#paint0_linear_53_41)"></path>
<path d="M41.3933 0C41.7434 1.08844 41.5529 2.02772 41.2224 2.74452C42.2858 3.24562 43.297 3.83916 44.2455 4.51471C43.6408 2.30486 45.6093 0.916958 45.6093 0.916958C45.6093 0.916958 43.2794 1.95538 41.3933 0Z" fill="url(#paint1_linear_53_41)"></path><path d="M17.9896 31.4021C18.0047 31.7634 17.9945 32.114 17.9632 32.4529C17.9578 32.5121 17.9517 32.5709 17.945 32.6293C17.8702 33.2797 17.7187 33.8856 17.5216 34.4407C17.5169 34.4538 17.5122 34.467 17.5075 34.4801C17.5037 34.4906 17.4999 34.5011 17.496 34.5117C17.3111 35.0183 17.0887 35.4817 16.853 35.8968C16.7764 36.0316 16.6984 36.1615 16.6196 36.2864C16.7856 36.2601 16.9569 36.2375 17.1326 36.2197C18.4156 36.0892 19.9662 36.2108 21.4377 37.0231C21.3974 36.2026 21.5104 35.4463 21.7148 34.7643C21.8956 34.161 22.148 33.616 22.429 33.1361C22.4689 33.0679 22.5093 33.0011 22.5503 32.9356C22.619 32.8256 22.6891 32.7193 22.7598 32.6167C22.7699 32.6021 22.7801 32.5875 22.7902 32.573C22.6622 32.5811 22.5308 32.5866 22.3965 32.5891C21.1025 32.6131 19.5334 32.3534 17.9896 31.4021Z" fill="url(#paint2_linear_53_41)"></path>
<path d="M32.8515 38.6041C29.2646 38.6041 25.9218 37.5588 23.1112 35.7562C23.2532 34.9984 23.5541 34.3371 23.902 33.7805C24.2806 33.1748 24.7133 32.6984 25.0529 32.3732C25.1287 32.3005 25.2152 32.2277 25.3038 32.1531C25.7107 31.8105 26.1625 31.4301 25.8367 30.8566C25.6345 30.5008 25.1957 30.356 24.8215 30.5214C23.5652 31.0114 22.1426 31.1345 20.8179 30.8478C23.9072 29.0472 26.631 27.2708 28.0115 26.3705C28.176 26.2632 28.3218 26.1681 28.4464 26.0872C29.4897 25.4098 30.6104 24.6222 31.7873 23.7951C36.2786 20.6387 41.5876 16.9076 46.5296 16.5371C48.31 16.4036 50.9011 17.1306 50.9011 19.7618C51.3291 29.8875 43.0004 38.6041 32.8515 38.6041Z" fill="url(#paint3_linear_53_41)"></path><path d="M15.2029 35.5428C6.9895 39.1448 1.18884 40.6608 0.293858 39.1107C-0.666083 37.448 4.25055 32.6616 12.4582 26.8107C12.6526 26.6721 12.9259 26.7301 13.0452 26.9368C13.1477 27.1143 13.1002 27.3412 12.9369 27.465C7.97971 31.2236 5.16372 34.1953 5.81524 35.3238C6.96773 37.3199 11.4585 35.7717 16.1827 33.3844C16.0106 34.0278 15.753 34.6057 15.4668 35.1096C15.3807 35.2612 15.2922 35.4057 15.2029 35.5428Z" fill="url(#paint4_linear_53_41)"></path>
<path d="M52.8357 22.9167C52.8357 22.9167 54.3075 21.7107 53.7385 19.9417C55.0583 21.31 56.6887 20.5834 56.6887 20.5834C56.6887 20.5834 55.1653 21.6574 55.8147 23.345C54.6123 22.0048 52.8357 22.9167 52.8357 22.9167Z" fill="url(#paint5_linear_53_41)"></path>
<path d="M84.9184 8.52721C84.6833 8.26118 84.3162 8.00347 83.8169 7.75407C83.3176 7.50467 82.6096 7.37997 81.6929 7.37997C81.1221 7.37997 80.6038 7.43816 80.138 7.55455C79.6895 7.67093 79.3108 7.84551 79.0019 8.07829C78.7103 8.31106 78.5168 8.59372 78.4215 8.92625C78.35 9.17565 78.3658 9.3918 78.469 9.57469C78.5943 9.74096 78.7614 9.88229 78.9701 9.99867C79.1837 10.0984 79.3934 10.1816 79.5992 10.2481L83.3785 11.545C84.6257 11.9606 85.4865 12.5176 85.9609 13.2159C86.4573 13.8976 86.5529 14.7705 86.2478 15.8346C85.833 17.2812 85.0761 18.5032 83.9771 19.5008C82.8781 20.4984 81.5715 21.255 80.0572 21.7704C78.543 22.2858 76.9383 22.5435 75.2432 22.5435C73.2195 22.5435 71.615 22.2276 70.4297 21.5958C69.2665 20.9474 68.5348 20.0911 68.2346 19.027C68.2005 18.8441 68.1891 18.7028 68.2005 18.603C68.2291 18.5032 68.3331 18.4118 68.5126 18.3287L71.7277 16.7075C72.0079 16.5745 72.225 16.5413 72.3789 16.6078C72.5501 16.6743 72.6811 16.7907 72.7718 16.9569C73.0504 17.3726 73.3284 17.7301 73.6059 18.0294C73.888 18.312 74.2671 18.5282 74.7431 18.6778C75.2412 18.8108 75.9313 18.8773 76.8134 18.8773C77.2977 18.8773 77.7617 18.8275 78.2055 18.7277C78.6665 18.6279 79.0601 18.4617 79.3863 18.2289C79.7346 17.9795 79.9707 17.6386 80.0946 17.2063C80.19 16.8738 80.1303 16.5995 79.9155 16.3833C79.7007 16.1672 79.3616 15.9926 78.8982 15.8596L75.406 14.7373C74.2011 14.3549 73.3523 13.7563 72.8594 12.9416C72.3666 12.1269 72.2775 11.1709 72.5921 10.0735C72.8782 9.07589 73.3605 8.17805 74.0391 7.37997C74.7349 6.58188 75.5617 5.90019 76.5195 5.33488C77.482 4.75295 78.5164 4.31234 79.6227 4.01306C80.7338 3.69715 81.8602 3.5392 83.0018 3.5392C84.1433 3.5392 85.1344 3.67221 85.9748 3.93824C86.8326 4.20427 87.5367 4.55343 88.0873 4.98572C88.66 5.40139 89.0651 5.85862 89.3026 6.35742C89.376 6.52369 89.4047 6.66502 89.3886 6.7814C89.3725 6.89779 89.2834 6.99755 89.1212 7.08069L85.6083 8.92625C85.4681 8.99276 85.3432 8.97613 85.2334 8.87637C85.1409 8.77661 85.0359 8.66022 84.9184 8.52721Z" fill="url(#paint6_linear_53_41)"></path>
<path d="M83.5169 22.2941C83.3266 22.2941 83.2553 22.211 83.303 22.0447C83.3334 21.8785 83.4961 21.6124 83.7913 21.2466L97.464 4.23752C97.625 4.038 97.7904 3.9133 97.9604 3.86342C98.1477 3.81354 98.3537 3.7886 98.5786 3.7886H103.69C103.915 3.7886 104.046 3.87173 104.085 4.038C104.124 4.20427 104.132 4.38716 104.11 4.58668L103.001 21.5709C102.988 21.7371 102.932 21.9034 102.833 22.0697C102.738 22.2193 102.595 22.2941 102.405 22.2941H97.3197C97.0775 22.2941 96.9656 22.1112 96.984 21.7454L97.1954 18.9272C97.221 18.7776 97.1301 18.7028 96.9225 18.7028H91.474C91.2665 18.7028 91.0712 18.8108 90.8881 19.027L88.4661 22.0447C88.3856 22.1445 88.306 22.211 88.2272 22.2442C88.1485 22.2775 88.014 22.2941 87.8238 22.2941H83.5169ZM97.4377 14.4629C97.7318 14.4629 97.8832 14.2967 97.8921 13.9641L98.1524 9.79915C98.1827 9.63288 98.1547 9.54975 98.0682 9.54975C97.9817 9.54975 97.8738 9.62457 97.7444 9.77421L94.3609 14.0639C94.244 14.2302 94.1957 14.3382 94.216 14.3881C94.2363 14.438 94.3243 14.4629 94.48 14.4629H97.4377Z" fill="url(#paint7_linear_53_41)"></path><path d="M107.815 4.21258C107.897 4.04631 107.98 3.93824 108.064 3.88836C108.152 3.82185 108.309 3.7886 108.533 3.7886H124.308C124.533 3.7886 124.653 3.82185 124.669 3.88836C124.701 3.95486 124.679 4.06294 124.602 4.21258L123.198 7.47973C123.142 7.61274 123.064 7.70419 122.963 7.75407C122.885 7.78732 122.759 7.80395 122.586 7.80395H117.994C117.821 7.80395 117.699 7.8372 117.628 7.90371C117.562 7.95359 117.49 8.05335 117.412 8.20299L111.51 21.8203C111.44 22.0032 111.352 22.1279 111.247 22.1944C111.141 22.2609 111.019 22.2941 110.881 22.2941H106.003C105.778 22.2941 105.646 22.2442 105.605 22.1445C105.564 22.0447 105.595 21.8785 105.696 21.6457L111.577 8.10323C111.652 7.90371 111.594 7.80395 111.404 7.80395H106.759C106.413 7.80395 106.305 7.67093 106.433 7.40491L107.815 4.21258Z" fill="url(#paint8_linear_53_41)"></path><path d="M138.362 15.1363C137.537 17.0484 136.555 18.5448 135.414 19.6255C134.274 20.7063 133.002 21.4628 131.598 21.8951C130.194 22.3274 128.68 22.5435 127.054 22.5435C124.355 22.5435 122.586 22.0198 121.744 20.9723C120.908 19.9082 120.769 18.4035 121.326 16.4581C121.422 16.1256 121.537 15.7848 121.671 15.4356C121.811 15.0698 121.959 14.704 122.116 14.3382L126.498 4.21258C126.585 4.02969 126.662 3.9133 126.728 3.86342C126.812 3.81354 126.923 3.7886 127.061 3.7886H131.99C132.146 3.7886 132.246 3.86342 132.289 4.01306C132.355 4.14607 132.347 4.29571 132.264 4.46198L127.618 15.2361C127.544 15.4356 127.463 15.6268 127.376 15.8097C127.311 15.976 127.255 16.1422 127.207 16.3085C126.964 17.1565 126.993 17.7467 127.296 18.0793C127.616 18.4118 128.122 18.5781 128.813 18.5781C129.384 18.5781 129.962 18.4617 130.548 18.2289C131.134 17.9961 131.695 17.6054 132.233 17.0567C132.771 16.508 133.24 15.7765 133.641 14.862L138.251 4.21258C138.338 4.02969 138.415 3.9133 138.481 3.86342C138.547 3.81354 138.658 3.7886 138.814 3.7886H142.706C142.861 3.7886 142.961 3.86342 143.005 4.01306C143.07 4.14607 143.062 4.29571 142.98 4.46198L138.362 15.1363Z" fill="url(#paint9_linear_53_41)"></path><path d="M153.822 21.6207C153.849 22.0697 153.638 22.2941 153.188 22.2941H148.155C147.982 22.2941 147.847 22.2526 147.749 22.1694C147.674 22.0697 147.646 21.8951 147.666 21.6457L148.006 15.2111C148.018 15.1114 148.002 15.0449 147.96 15.0116C147.922 14.9617 147.834 14.9368 147.696 14.9368H146.139C145.914 14.9368 145.756 15.0366 145.664 15.2361L142.845 21.7205C142.734 21.9865 142.591 22.1528 142.416 22.2193C142.264 22.2692 142.04 22.2941 141.746 22.2941H137.387C137.128 22.2941 136.985 22.2193 136.959 22.0697C136.933 21.92 136.959 21.7371 137.038 21.521L144.544 4.21258C144.631 4.02969 144.708 3.9133 144.774 3.86342C144.84 3.81354 144.951 3.7886 145.107 3.7886H153.772C156.09 3.7886 157.759 4.21258 158.778 5.06054C159.803 5.89188 160.1 7.05575 159.671 8.55215C159.438 9.36686 159.043 10.14 158.487 10.8716C157.949 11.6031 157.302 12.2599 156.547 12.8418C155.797 13.4071 154.981 13.8394 154.1 14.1387C153.851 14.2219 153.689 14.305 153.613 14.3881C153.559 14.4546 153.535 14.5378 153.541 14.6375L153.822 21.6207ZM150.318 11.2207C150.82 11.2207 151.283 11.1127 151.708 10.8965C152.156 10.6637 152.533 10.3728 152.841 10.0236C153.148 9.67445 153.359 9.30035 153.474 8.90131C153.612 8.41914 153.533 8.06166 153.237 7.82889C152.94 7.59611 152.524 7.47973 151.988 7.47973H149.341C149.134 7.47973 148.956 7.64599 148.809 7.97853L147.545 10.8466C147.48 11.0129 147.467 11.121 147.504 11.1709C147.547 11.2041 147.62 11.2207 147.724 11.2207H150.318Z" fill="url(#paint10_linear_53_41)"></path><path d="M180.062 3.7886C180.304 3.7886 180.369 3.92161 180.258 4.18764L172.532 21.9948C172.457 22.1944 172.256 22.2941 171.927 22.2941H168.373C168.252 22.2941 168.151 22.2526 168.071 22.1694C168.008 22.0863 167.949 21.9616 167.893 21.7953L164.723 12.4927C164.695 12.4095 164.644 12.3763 164.57 12.3929C164.496 12.4095 164.415 12.5093 164.328 12.6922L160.362 21.8203C160.287 22.0198 160.197 22.1528 160.092 22.2193C160.008 22.2692 159.845 22.2941 159.603 22.2941H155.867C155.677 22.2941 155.572 22.2359 155.554 22.1195C155.54 21.9865 155.568 21.8286 155.638 21.6457L163.205 4.21258C163.292 4.02969 163.369 3.9133 163.435 3.86342C163.519 3.81354 163.656 3.7886 163.846 3.7886H168.075C168.282 3.7886 168.424 3.83848 168.499 3.93824C168.591 4.038 168.663 4.17933 168.715 4.36222L171.4 12.6423C171.443 12.792 171.519 12.8585 171.628 12.8418C171.758 12.8086 171.859 12.7005 171.928 12.5176L175.544 4.1627C175.626 3.99643 175.698 3.89667 175.759 3.86342C175.843 3.81354 175.979 3.7886 176.17 3.7886H180.062Z" fill="url(#paint11_linear_53_41)"></path><path d="M74.3442 30.4751C74.2389 30.3558 74.0743 30.2403 73.8504 30.1285C73.6266 30.0167 73.3092 29.9608 72.8983 29.9608C72.6424 29.9608 72.4101 29.9869 72.2013 30.039C72.0002 30.0912 71.8305 30.1695 71.692 30.2738C71.5613 30.3782 71.4746 30.5049 71.4318 30.6539C71.3997 30.7657 71.4069 30.8626 71.4531 30.9446C71.5093 31.0192 71.5842 31.0825 71.6778 31.1347C71.7735 31.1794 71.8675 31.2167 71.9597 31.2465L73.6539 31.8279C74.213 32.0142 74.5989 32.2639 74.8115 32.5769C75.0341 32.8825 75.0769 33.2738 74.9402 33.7508C74.7542 34.3993 74.4149 34.9471 73.9223 35.3943C73.4296 35.8415 72.8439 36.1806 72.1651 36.4117C71.4863 36.6427 70.767 36.7582 70.0071 36.7582C69.0999 36.7582 68.3806 36.6166 67.8493 36.3334C67.3279 36.0427 66.9999 35.6589 66.8653 35.1819C66.85 35.0999 66.8449 35.0365 66.85 34.9918C66.8628 34.9471 66.9094 34.9061 66.9899 34.8688L68.4311 34.1421C68.5568 34.0825 68.6541 34.0676 68.7231 34.0974C68.7998 34.1272 68.8585 34.1794 68.8992 34.2539C69.0241 34.4403 69.1487 34.6005 69.2731 34.7347C69.3996 34.8614 69.5695 34.9583 69.7829 35.0253C70.0062 35.085 70.3155 35.1148 70.711 35.1148C70.9281 35.1148 71.1361 35.0924 71.335 35.0477C71.5416 35.003 71.7181 34.9284 71.8643 34.8241C72.0204 34.7123 72.1263 34.5595 72.1818 34.3657C72.2246 34.2167 72.1978 34.0937 72.1015 33.9968C72.0053 33.8999 71.8533 33.8216 71.6455 33.762L70.0801 33.2589C69.5399 33.0875 69.1594 32.8191 68.9385 32.4539C68.7175 32.0887 68.6776 31.6602 68.8187 31.1682C68.9469 30.721 69.1631 30.3186 69.4673 29.9608C69.7792 29.603 70.1499 29.2974 70.5792 29.044C71.0107 28.7832 71.4744 28.5856 71.9703 28.4515C72.4684 28.3099 72.9733 28.2391 73.485 28.2391C73.9968 28.2391 74.441 28.2987 74.8178 28.4179C75.2023 28.5372 75.518 28.6937 75.7648 28.8875C76.0215 29.0738 76.2031 29.2788 76.3096 29.5024C76.3425 29.5769 76.3553 29.6403 76.3481 29.6925C76.3409 29.7446 76.3009 29.7894 76.2282 29.8266L74.6535 30.6539C74.5907 30.6838 74.5346 30.6763 74.4854 30.6316C74.444 30.5869 74.3969 30.5347 74.3442 30.4751Z" fill="url(#paint12_linear_53_41)"></path><path d="M80.4719 28.5409C80.5109 28.4589 80.5452 28.4068 80.5749 28.3844C80.6046 28.362 80.6543 28.3509 80.7241 28.3509H87.0511C87.1984 28.3509 87.2239 28.4515 87.1274 28.6527L86.5578 29.9496C86.5244 30.039 86.483 30.1024 86.4335 30.1397C86.3862 30.1695 86.3083 30.1844 86.1997 30.1844H82.5942C82.5245 30.1844 82.4698 30.1993 82.4302 30.2291C82.3928 30.2515 82.3546 30.3036 82.3156 30.3856L81.8694 31.4142C81.8403 31.4887 81.8303 31.5372 81.8394 31.5595C81.8584 31.5744 81.895 31.5819 81.9493 31.5819H84.1474C84.2327 31.5819 84.2789 31.5968 84.2858 31.6266C84.3005 31.6564 84.2905 31.7049 84.2558 31.772L83.6265 33.2365C83.5909 33.3334 83.515 33.3819 83.3987 33.3819H81.154C81.061 33.3819 80.9857 33.4415 80.9282 33.5608L80.448 34.6676C80.4125 34.7645 80.4258 34.8129 80.4878 34.8129H84.3608C84.4461 34.8129 84.4922 34.8278 84.4991 34.8576C84.5138 34.8875 84.5017 34.9434 84.4627 35.0253L83.8514 36.4676C83.8244 36.5346 83.7911 36.5831 83.7516 36.6129C83.7141 36.6353 83.645 36.6464 83.5442 36.6464H77.287C77.0699 36.6464 77.01 36.5309 77.1072 36.2999L80.4719 28.5409Z" fill="url(#paint13_linear_53_41)"></path><path d="M94.7601 36.3446C94.7722 36.5458 94.6774 36.6464 94.4758 36.6464H92.2195C92.1419 36.6464 92.0814 36.6278 92.0378 36.5905C92.0041 36.5458 91.9916 36.4676 92.0004 36.3558L92.153 33.4713C92.158 33.4266 92.1511 33.3968 92.1321 33.3819C92.1152 33.3595 92.0758 33.3483 92.0138 33.3483H91.3159C91.2151 33.3483 91.1441 33.3931 91.103 33.4825L89.8391 36.3893C89.7894 36.5086 89.7254 36.5831 89.6471 36.6129C89.5787 36.6353 89.4785 36.6464 89.3467 36.6464H87.3928C87.2765 36.6464 87.2124 36.6129 87.2007 36.5458C87.1889 36.4787 87.2008 36.3968 87.2363 36.2999L90.6009 28.5409C90.6399 28.4589 90.6743 28.4068 90.704 28.3844C90.7336 28.362 90.7834 28.3509 90.8531 28.3509H94.7378C95.7768 28.3509 96.5248 28.5409 96.9818 28.921C97.4409 29.2937 97.5744 29.8154 97.382 30.4862C97.2773 30.8515 97.1004 31.198 96.8512 31.526C96.6099 31.8539 96.32 32.1483 95.9816 32.4092C95.6453 32.6626 95.2796 32.8564 94.8844 32.9906C94.7729 33.0278 94.7002 33.0651 94.6663 33.1024C94.6422 33.1322 94.6315 33.1695 94.6342 33.2142L94.7601 36.3446ZM93.1893 31.6825C93.4141 31.6825 93.6218 31.6341 93.8125 31.5372C94.013 31.4328 94.1822 31.3024 94.3201 31.1459C94.458 30.9893 94.5526 30.8217 94.6039 30.6428C94.6659 30.4266 94.6304 30.2664 94.4975 30.162C94.3646 30.0577 94.178 30.0055 93.9376 30.0055H92.7513C92.6583 30.0055 92.5787 30.08 92.5127 30.2291L91.9464 31.5148C91.9172 31.5893 91.9111 31.6378 91.9279 31.6602C91.9469 31.6751 91.9797 31.6825 92.0262 31.6825H93.1893Z" fill="url(#paint14_linear_53_41)"></path><path d="M104.034 28.3509C104.165 28.3509 104.191 28.4515 104.11 28.6527L100.763 36.3893C100.714 36.5086 100.657 36.5831 100.594 36.6129C100.542 36.6353 100.449 36.6464 100.317 36.6464H98.2936C98.1696 36.6464 98.1055 36.6129 98.1015 36.5458C98.1052 36.4787 98.1249 36.3968 98.1604 36.2999L101.525 28.5409C101.564 28.4589 101.598 28.4068 101.628 28.3844C101.665 28.362 101.715 28.3509 101.777 28.3509H104.034Z" fill="url(#paint15_linear_53_41)"></path><path d="M107.702 28.5409C107.741 28.4589 107.775 28.4068 107.805 28.3844C107.834 28.362 107.884 28.3509 107.954 28.3509H114.281C114.428 28.3509 114.453 28.4515 114.357 28.6527L113.787 29.9496C113.754 30.039 113.713 30.1024 113.663 30.1397C113.616 30.1695 113.538 30.1844 113.429 30.1844H109.824C109.754 30.1844 109.699 30.1993 109.66 30.2291C109.622 30.2515 109.584 30.3036 109.545 30.3856L109.099 31.4142C109.07 31.4887 109.06 31.5372 109.069 31.5595C109.088 31.5744 109.125 31.5819 109.179 31.5819H111.377C111.462 31.5819 111.508 31.5968 111.515 31.6266C111.53 31.6564 111.52 31.7049 111.485 31.772L110.856 33.2365C110.821 33.3334 110.745 33.3819 110.628 33.3819H108.384C108.291 33.3819 108.215 33.4415 108.158 33.5608L107.678 34.6676C107.642 34.7645 107.655 34.8129 107.717 34.8129H111.59C111.676 34.8129 111.722 34.8278 111.729 34.8576C111.743 34.8875 111.731 34.9434 111.692 35.0253L111.081 36.4676C111.054 36.5346 111.021 36.5831 110.981 36.6129C110.944 36.6353 110.875 36.6464 110.774 36.6464H104.517C104.3 36.6464 104.24 36.5309 104.337 36.2999L107.702 28.5409Z" fill="url(#paint16_linear_53_41)"></path><path d="M122.184 30.4751C122.079 30.3558 121.914 30.2403 121.69 30.1285C121.466 30.0167 121.149 29.9608 120.738 29.9608C120.482 29.9608 120.25 29.9869 120.041 30.039C119.84 30.0912 119.67 30.1695 119.532 30.2738C119.401 30.3782 119.314 30.5049 119.272 30.6539C119.24 30.7657 119.247 30.8626 119.293 30.9446C119.349 31.0192 119.424 31.0825 119.518 31.1347C119.613 31.1794 119.707 31.2167 119.8 31.2465L121.494 31.8279C122.053 32.0142 122.439 32.2639 122.651 32.5769C122.874 32.8825 122.917 33.2738 122.78 33.7508C122.594 34.3993 122.255 34.9471 121.762 35.3943C121.269 35.8415 120.684 36.1806 120.005 36.4117C119.326 36.6427 118.607 36.7582 117.847 36.7582C116.94 36.7582 116.22 36.6166 115.689 36.3334C115.168 36.0427 114.84 35.6589 114.705 35.1819C114.69 35.0999 114.685 35.0365 114.69 34.9918C114.703 34.9471 114.749 34.9061 114.83 34.8688L116.271 34.1421C116.397 34.0825 116.494 34.0676 116.563 34.0974C116.64 34.1272 116.698 34.1794 116.739 34.2539C116.864 34.4403 116.989 34.6005 117.113 34.7347C117.239 34.8614 117.409 34.9583 117.623 35.0253C117.846 35.085 118.155 35.1148 118.551 35.1148C118.768 35.1148 118.976 35.0924 119.175 35.0477C119.381 35.003 119.558 34.9284 119.704 34.8241C119.86 34.7123 119.966 34.5595 120.022 34.3657C120.064 34.2167 120.038 34.0937 119.941 33.9968C119.845 33.8999 119.693 33.8216 119.485 33.762L117.92 33.2589C117.38 33.0875 116.999 32.8191 116.778 32.4539C116.557 32.0887 116.517 31.6602 116.658 31.1682C116.787 30.721 117.003 30.3186 117.307 29.9608C117.619 29.603 117.99 29.2974 118.419 29.044C118.85 28.7832 119.314 28.5856 119.81 28.4515C120.308 28.3099 120.813 28.2391 121.325 28.2391C121.837 28.2391 122.281 28.2987 122.658 28.4179C123.042 28.5372 123.358 28.6937 123.605 28.8875C123.861 29.0738 124.043 29.2788 124.149 29.5024C124.182 29.5769 124.195 29.6403 124.188 29.6925C124.181 29.7446 124.141 29.7894 124.068 29.8266L122.493 30.6539C122.43 30.6838 122.374 30.6763 122.325 30.6316C122.284 30.5869 122.237 30.5347 122.184 30.4751Z" fill="url(#paint17_linear_53_41)"></path>
<defs>
<linearGradient id="paint0_linear_53_41"  x1="65.1496" y1="-2.78089e-10" x2="65.1375" y2="39.7153" gradientUnits="userSpaceOnUse"><stop stop-color="#FB8A28"></stop><stop offset="1" stop-color="#FF3D00"></stop></linearGradient>
<linearGradient id="paint1_linear_53_41"  x1="65.1496" y1="-2.78089e-10" x2="65.1375" y2="39.7153" gradientUnits="userSpaceOnUse"><stop stop-color="#FB8A28"></stop><stop offset="1" stop-color="#FF3D00"></stop></linearGradient>
<linearGradient id="paint2_linear_53_41"  x1="65.1496" y1="-2.78089e-10" x2="65.1375" y2="39.7153" gradientUnits="userSpaceOnUse"><stop stop-color="#FB8A28"></stop><stop offset="1" stop-color="#FF3D00"></stop></linearGradient>
<linearGradient id="paint3_linear_53_41"  x1="65.1496" y1="-2.78089e-10" x2="65.1375" y2="39.7153" gradientUnits="userSpaceOnUse"><stop stop-color="#FB8A28"></stop><stop offset="1" stop-color="#FF3D00"></stop></linearGradient>
<linearGradient id="paint4_linear_53_41"  x1="65.1496" y1="-2.78089e-10" x2="65.1375" y2="39.7153" gradientUnits="userSpaceOnUse"><stop stop-color="#FB8A28"></stop><stop offset="1" stop-color="#FF3D00"></stop></linearGradient>
<linearGradient id="paint5_linear_53_41"  x1="65.1496" y1="-2.78089e-10" x2="65.1375" y2="39.7153" gradientUnits="userSpaceOnUse"><stop stop-color="#FB8A28"></stop><stop offset="1" stop-color="#FF3D00"></stop></linearGradient>
<linearGradient id="paint6_linear_53_41"  x1="65.1496" y1="-2.78089e-10" x2="65.1375" y2="39.7153" gradientUnits="userSpaceOnUse"><stop stop-color="#FB8A28"></stop><stop offset="1" stop-color="#FF3D00"></stop></linearGradient>
<linearGradient id="paint7_linear_53_41"  x1="65.1496" y1="-2.78089e-10" x2="65.1375" y2="39.7153" gradientUnits="userSpaceOnUse"><stop stop-color="#FB8A28"></stop><stop offset="1" stop-color="#FF3D00"></stop></linearGradient>
<linearGradient id="paint8_linear_53_41"  x1="65.1496" y1="-2.78089e-10" x2="65.1375" y2="39.7153" gradientUnits="userSpaceOnUse"><stop stop-color="#FB8A28"></stop><stop offset="1" stop-color="#FF3D00"></stop></linearGradient>
<linearGradient id="paint9_linear_53_41"  x1="65.1496" y1="-2.78089e-10" x2="65.1375" y2="39.7153" gradientUnits="userSpaceOnUse"><stop stop-color="#FB8A28"></stop><stop offset="1" stop-color="#FF3D00"></stop></linearGradient>
<linearGradient id="paint10_linear_53_41" x1="65.1496" y1="-2.78089e-10" x2="65.1375" y2="39.7153" gradientUnits="userSpaceOnUse"><stop stop-color="#FB8A28"></stop><stop offset="1" stop-color="#FF3D00"></stop></linearGradient>
<linearGradient id="paint11_linear_53_41" x1="65.1496" y1="-2.78089e-10" x2="65.1375" y2="39.7153" gradientUnits="userSpaceOnUse"><stop stop-color="#FB8A28"></stop><stop offset="1" stop-color="#FF3D00"></stop></linearGradient>
<linearGradient id="paint12_linear_53_41" x1="65.1496" y1="-2.78089e-10" x2="65.1375" y2="39.7153" gradientUnits="userSpaceOnUse"><stop stop-color="#FB8A28"></stop><stop offset="1" stop-color="#FF3D00"></stop></linearGradient>
<linearGradient id="paint13_linear_53_41" x1="65.1496" y1="-2.78089e-10" x2="65.1375" y2="39.7153" gradientUnits="userSpaceOnUse"><stop stop-color="#FB8A28"></stop><stop offset="1" stop-color="#FF3D00"></stop></linearGradient>
<linearGradient id="paint14_linear_53_41" x1="65.1496" y1="-2.78089e-10" x2="65.1375" y2="39.7153" gradientUnits="userSpaceOnUse"><stop stop-color="#FB8A28"></stop><stop offset="1" stop-color="#FF3D00"></stop></linearGradient>
<linearGradient id="paint15_linear_53_41" x1="65.1496" y1="-2.78089e-10" x2="65.1375" y2="39.7153" gradientUnits="userSpaceOnUse"><stop stop-color="#FB8A28"></stop><stop offset="1" stop-color="#FF3D00"></stop></linearGradient>
<linearGradient id="paint16_linear_53_41" x1="65.1496" y1="-2.78089e-10" x2="65.1375" y2="39.7153" gradientUnits="userSpaceOnUse"><stop stop-color="#FB8A28"></stop><stop offset="1" stop-color="#FF3D00"></stop></linearGradient>
<linearGradient id="paint17_linear_53_41" x1="65.1496" y1="-2.78089e-10" x2="65.1375" y2="39.7153" gradientUnits="userSpaceOnUse"><stop stop-color="#FB8A28"></stop><stop offset="1" stop-color="#FF3D00"></stop></linearGradient>
</defs>
</svg>
